<svg width="652" height="489" viewBox="0 0 652 489" fill="none" xmlns="http://www.w3.org/2000/svg">
<g clip-path="url(#clip0)">
<path opacity="0.41" d="M538.899 374.199C537.304 382.42 535.258 390.703 531.09 397.936C530.7 398.611 530.311 399.273 529.834 399.91V399.623L117.47 398.499V400.273C116.215 367.315 108.682 334.72 108.594 301.726C108.567 282.665 111.057 263.683 116.002 245.268C120.659 227.928 127.577 210.987 138.286 196.545C167.514 157.103 218.901 142.411 260.52 116.225C304.801 88.3776 320.206 25.8611 368.869 6.58396C394.518 -3.61057 424.524 -1.71159 449.257 10.5069C473.99 22.7253 493.413 44.8634 503.431 70.4747C516.262 103.32 513.965 139.75 518.07 174.744C523.243 218.97 538.773 261.447 542.54 305.723C544.489 328.607 543.264 351.648 538.899 374.199Z" fill="#68E1FD"/>
<path opacity="0.66" d="M529.884 399.673V400.198C502.716 454.943 438.962 486.476 409.245 487.251L201.575 489C154.256 489 117.37 449.671 117.37 402.584V400.273V398.499L529.884 399.673Z" fill="#68E1FD"/>
<path d="M171.682 419.575C169.247 420.499 166.284 422.686 167.464 424.997C167.988 425.809 168.757 426.434 169.661 426.783C194.469 439.801 223.521 441.426 251.531 442.8L360.758 448.109C378.121 448.946 396.276 449.646 412.045 442.387C418.047 439.408 423.744 435.856 429.056 431.781C436.589 426.384 444.039 420.916 451.404 415.377C453.25 414.003 455.171 412.404 455.585 410.142C455.999 407.544 453.978 405.045 451.542 404.008C449.026 403.153 446.352 402.855 443.708 403.134C419.578 403.967 395.439 404.304 371.292 404.146C355.975 404.058 340.608 403.796 325.404 401.872C300.646 398.736 277.042 395.375 252.058 398.499C224.664 401.909 197.344 409.768 171.682 419.575Z" fill="url(#paint0_linear)"/>
<path d="M432.333 72.0363H287.023C274.168 72.0363 263.747 82.4066 263.747 95.1989V381.508C263.747 394.3 274.168 404.67 287.023 404.67H432.333C445.189 404.67 455.61 394.3 455.61 381.508V95.1989C455.61 82.4066 445.189 72.0363 432.333 72.0363Z" fill="#68E1FD"/>
<path d="M432.333 72.0363H287.023C274.168 72.0363 263.747 82.4066 263.747 95.1989V381.508C263.747 394.3 274.168 404.67 287.023 404.67H432.333C445.189 404.67 455.61 394.3 455.61 381.508V95.1989C455.61 82.4066 445.189 72.0363 432.333 72.0363Z" fill="url(#paint1_linear)"/>
<path d="M420.393 72.0363H275.084C262.228 72.0363 251.807 82.4066 251.807 95.1989V381.508C251.807 394.3 262.228 404.67 275.084 404.67H420.393C433.249 404.67 443.67 394.3 443.67 381.508V95.1989C443.67 82.4066 433.249 72.0363 420.393 72.0363Z" fill="#68E1FD"/>
<path d="M429.195 110.116V354.872C429.195 359.751 427.248 364.429 423.783 367.88C420.317 371.331 415.616 373.271 410.714 373.275H285.668C283.24 373.275 280.836 372.799 278.593 371.874C276.35 370.949 274.312 369.593 272.595 367.884C270.879 366.175 269.518 364.146 268.59 361.913C267.662 359.681 267.185 357.288 267.187 354.872V110.116C267.185 108.126 267.578 106.155 268.341 104.316C269.105 102.476 270.226 100.805 271.639 99.3965C273.052 97.9881 274.73 96.8705 276.577 96.1074C278.424 95.3443 280.404 94.9507 282.403 94.949H413.953C417.994 94.9523 421.869 96.5513 424.727 99.395C427.584 102.239 429.191 106.094 429.195 110.116Z" fill="white"/>
<path d="M429.194 273.578V354.872C429.194 359.751 427.248 364.429 423.782 367.88C420.317 371.331 415.616 373.271 410.714 373.275H301.273V273.578H429.194Z" fill="#68E1FD"/>
<path d="M429.182 273.578V354.872C429.179 359.747 427.233 364.422 423.771 367.872C420.309 371.322 415.613 373.265 410.714 373.275H301.273V273.578H429.182Z" fill="url(#paint2_linear)"/>
<path d="M429.182 320.465V354.872C429.189 359.595 427.363 364.138 424.085 367.553H305.253V320.465H429.182Z" fill="url(#paint3_linear)"/>
<path d="M265.291 95.1114L226.233 136.677H399.653L434.455 94.5242L265.291 95.1114Z" fill="#68E1FD"/>
<path d="M286.71 94.949L251.719 136.427L399.967 136.577H226.233L227.288 135.59L241.261 122.559L267.074 94.9365L286.71 94.949Z" fill="url(#paint4_linear)"/>
<path d="M338.059 94.3493L303.307 136.427L451.555 136.577H277.821L278.875 135.59L311.932 94.9365L338.059 94.3493Z" fill="url(#paint5_linear)"/>
<path d="M387.801 94.3493L353.049 136.427L327.563 136.577L328.618 135.59L361.674 94.9365L387.801 94.3493Z" fill="url(#paint6_linear)"/>
<path d="M434.706 94.3493L399.954 136.427L374.468 136.577L375.522 135.59L408.579 94.9365L434.706 94.3493Z" fill="url(#paint7_linear)"/>
<path d="M302.893 136.664H327.764C327.347 139.651 325.859 142.388 323.573 144.368C321.287 146.349 318.359 147.439 315.328 147.439C312.298 147.439 309.369 146.349 307.084 144.368C304.798 142.388 303.31 139.651 302.893 136.664Z" fill="#68E1FD"/>
<path d="M277.633 136.664H302.504C302.087 139.651 300.598 142.388 298.313 144.368C296.027 146.349 293.099 147.439 290.068 147.439C287.037 147.439 284.109 146.349 281.823 144.368C279.538 142.388 278.049 139.651 277.633 136.664Z" fill="#68E1FD"/>
<path d="M378.222 136.514C377.832 139.513 376.362 142.27 374.086 144.273C371.809 146.275 368.879 147.388 365.84 147.405C362.801 147.422 359.86 146.341 357.561 144.364C355.262 142.386 353.761 139.646 353.338 136.652H378.071L378.222 136.514Z" fill="#68E1FD"/>
<path d="M399.841 136.514C399.239 142.761 394.618 147.596 389.019 147.596C383.42 147.596 378.862 142.811 378.209 136.652H399.753L399.841 136.514Z" fill="#68E1FD"/>
<path d="M252.523 136.664H277.394C276.977 139.651 275.489 142.388 273.203 144.368C270.918 146.349 267.989 147.439 264.959 147.439C261.928 147.439 258.999 146.349 256.714 144.368C254.428 142.388 252.94 139.651 252.523 136.664Z" fill="#68E1FD"/>
<path d="M328.115 136.664H352.961C352.545 139.651 351.056 142.388 348.77 144.368C346.485 146.349 343.557 147.439 340.526 147.439C337.495 147.439 334.567 146.349 332.281 144.368C329.996 142.388 328.507 139.651 328.09 136.664H328.115Z" fill="#68E1FD"/>
<path d="M227.237 136.664H252.108C251.692 139.651 250.203 142.388 247.918 144.368C245.632 146.349 242.704 147.439 239.673 147.439C236.642 147.439 233.714 146.349 231.428 144.368C229.143 142.388 227.654 139.651 227.237 136.664Z" fill="#68E1FD"/>
<path d="M302.893 136.664H327.764C327.347 139.651 325.859 142.388 323.573 144.368C321.287 146.349 318.359 147.439 315.328 147.439C312.298 147.439 309.369 146.349 307.084 144.368C304.798 142.388 303.31 139.651 302.893 136.664Z" fill="url(#paint8_linear)"/>
<path d="M277.633 136.664H302.504C302.087 139.651 300.598 142.388 298.313 144.368C296.027 146.349 293.099 147.439 290.068 147.439C287.037 147.439 284.109 146.349 281.823 144.368C279.538 142.388 278.049 139.651 277.633 136.664Z" fill="url(#paint9_linear)"/>
<path d="M378.209 136.664C377.82 139.663 376.35 142.42 374.073 144.422C371.796 146.425 368.867 147.538 365.828 147.555C362.789 147.572 359.847 146.491 357.548 144.514C355.249 142.536 353.749 139.796 353.326 136.802H378.071L378.209 136.664Z" fill="url(#paint10_linear)"/>
<path d="M399.766 136.589C399.176 142.836 394.568 147.683 388.981 147.683C383.394 147.683 378.862 142.886 378.209 136.739H399.678L399.766 136.589Z" fill="url(#paint11_linear)"/>
<path d="M252.523 136.664H277.394C276.977 139.651 275.489 142.388 273.203 144.368C270.918 146.349 267.989 147.439 264.959 147.439C261.928 147.439 258.999 146.349 256.714 144.368C254.428 142.388 252.94 139.651 252.523 136.664Z" fill="url(#paint12_linear)"/>
<path d="M328.115 136.664H352.961C352.545 139.651 351.056 142.388 348.77 144.368C346.485 146.349 343.557 147.439 340.526 147.439C337.495 147.439 334.567 146.349 332.281 144.368C329.996 142.388 328.507 139.651 328.09 136.664H328.115Z" fill="url(#paint13_linear)"/>
<path d="M227.237 136.664H252.108C251.692 139.651 250.203 142.388 247.918 144.368C245.632 146.349 242.704 147.439 239.673 147.439C236.642 147.439 233.714 146.349 231.428 144.368C229.143 142.388 227.654 139.651 227.237 136.664Z" fill="url(#paint14_linear)"/>
<path d="M252.096 136.664L286.471 95.2489L311.932 94.9365L277.319 136.664H252.096Z" fill="url(#paint15_linear)"/>
<path d="M302.667 136.664L337.042 95.2489L360.947 94.7117L327.89 136.664H302.667Z" fill="url(#paint16_linear)"/>
<path d="M353.238 136.664L387.6 95.2489L411.517 94.7117L378.448 136.664H353.238Z" fill="url(#paint17_linear)"/>
<path d="M399.678 136.739L433.024 130.168L434.832 94.3493L399.678 136.739Z" fill="#68E1FD"/>
<path d="M399.954 136.389L433.3 129.818L435.12 93.9995L399.954 136.389Z" fill="url(#paint18_linear)"/>
<path d="M353.853 381.058H327.136C323.212 381.058 320.03 384.224 320.03 388.129C320.03 392.034 323.212 395.2 327.136 395.2H353.853C357.778 395.2 360.959 392.034 360.959 388.129C360.959 384.224 357.778 381.058 353.853 381.058Z" fill="url(#paint19_linear)"/>
<path d="M256.553 235.836C274.782 235.836 289.559 221.131 289.559 202.991C289.559 184.851 274.782 170.146 256.553 170.146C238.324 170.146 223.546 184.851 223.546 202.991C223.546 221.131 238.324 235.836 256.553 235.836Z" fill="#68E1FD"/>
<path d="M250.69 235.836C268.919 235.836 283.696 221.131 283.696 202.991C283.696 184.851 268.919 170.146 250.69 170.146C232.461 170.146 217.683 184.851 217.683 202.991C217.683 221.131 232.461 235.836 250.69 235.836Z" fill="url(#paint20_linear)"/>
<path d="M218.675 301.8C234.817 301.8 247.903 288.779 247.903 272.716C247.903 256.653 234.817 243.632 218.675 243.632C202.533 243.632 189.447 256.653 189.447 272.716C189.447 288.779 202.533 301.8 218.675 301.8Z" fill="#68E1FD"/>
<path d="M213.477 301.8C229.619 301.8 242.705 288.779 242.705 272.716C242.705 256.653 229.619 243.632 213.477 243.632C197.335 243.632 184.25 256.653 184.25 272.716C184.25 288.779 197.335 301.8 213.477 301.8Z" fill="url(#paint21_linear)"/>
<path d="M358.096 237.448C354.004 241.82 351.631 247.442 349.308 252.989L342.767 268.756C342.556 269.115 342.427 269.517 342.39 269.931C342.354 270.346 342.409 270.764 342.554 271.154C342.802 271.468 343.116 271.723 343.474 271.902C343.832 272.081 344.225 272.18 344.625 272.191C347.954 272.693 351.306 273.026 354.669 273.191C371.652 274.24 388.663 274.628 405.704 274.353C407.747 274.46 409.788 274.114 411.681 273.341C416.376 270.98 416.702 264.483 415.912 259.323C414.963 253.311 413.277 247.436 410.89 241.833C410.052 239.612 408.818 237.559 407.249 235.773C403.357 231.713 397.205 231.063 391.543 230.901C380.796 230.639 366.157 228.815 358.096 237.448Z" fill="#68E1FD"/>
<path d="M345.604 233.837C345.498 233.265 345.182 232.752 344.719 232.397C344.255 232.042 343.677 231.869 343.093 231.913C341.614 231.848 340.132 231.903 338.661 232.075C337.716 232.101 336.806 232.44 336.075 233.037C335.546 233.674 335.219 234.452 335.134 235.274C333.941 241.708 335.322 248.304 335.849 254.826C336.213 259.273 336.251 263.996 338.661 267.744C339.752 269.402 341.242 270.761 342.997 271.698C344.752 272.634 346.714 273.117 348.705 273.103C350.388 273.103 352.296 272.491 352.936 270.955C353.196 270.179 353.269 269.353 353.15 268.543C352.283 256.837 350.589 244.606 345.604 233.837Z" fill="#68E1FD"/>
<path d="M344.751 228.103C345.541 226.403 346.621 224.854 347.563 223.23C347.831 222.823 348.006 222.362 348.078 221.881C348.108 221.631 348.061 221.379 347.945 221.156C347.828 220.933 347.647 220.75 347.425 220.632C346.483 220.269 345.73 221.569 344.751 221.768C343.771 221.968 343.068 221.194 342.428 220.519C339.635 217.753 336.337 215.543 332.71 214.01C332.524 213.898 332.316 213.825 332.101 213.795C331.885 213.765 331.665 213.779 331.455 213.835C331.066 214.01 330.953 214.697 331.354 214.822C330.966 214.852 330.578 214.756 330.25 214.547C329.898 214.397 329.383 214.385 329.22 214.735C329.057 215.085 329.534 215.597 329.409 215.984C328.981 215.994 328.556 215.926 328.153 215.784C327.726 215.709 327.161 215.784 327.086 216.271C327.054 216.432 327.054 216.598 327.086 216.759C327.142 217.411 327.142 218.067 327.086 218.72C327.283 220.463 328.015 222.103 329.183 223.418C331.51 226.299 333.609 229.357 335.46 232.563C335.904 233.61 336.501 234.586 337.23 235.461C338.26 236.561 342.076 238.122 343.081 236.211C343.558 235.311 343.169 233.337 343.344 232.288C343.626 230.837 344.099 229.43 344.751 228.103Z" fill="url(#paint22_linear)"/>
<path d="M396.552 254.488C396.798 255.28 396.866 256.115 396.751 256.936C396.636 257.756 396.341 258.542 395.887 259.236C394.794 260.56 392.886 260.823 391.166 260.91C382.792 261.347 374.242 259.911 366.056 261.809C364.88 261.958 363.795 262.516 362.993 263.384C362.293 264.616 362.091 266.068 362.428 267.444L363.131 273.403L354.97 271.929C354.664 271.888 354.37 271.786 354.104 271.629C353.718 271.257 353.489 270.752 353.464 270.217C352.795 267.111 352.504 263.936 352.598 260.76C352.707 257.557 353.973 254.501 356.163 252.152C358.238 250.318 360.742 249.03 363.445 248.404C369.722 246.605 376.326 246.08 382.867 245.556C385.692 245.331 390.4 244.706 392.823 246.618C394.845 248.242 396.05 252.102 396.552 254.488Z" fill="url(#paint23_linear)"/>
<path d="M362.001 211.474C361.776 213.514 361.848 215.576 362.214 217.596C362.657 219.368 363.518 221.01 364.725 222.385C365.932 223.76 367.452 224.829 369.157 225.504C371.668 226.491 374.644 226.753 376.364 228.79C378.084 230.826 377.996 233.537 379.766 235.236C380.685 236.001 381.832 236.441 383.029 236.489C384.226 236.536 385.405 236.188 386.382 235.499C388.311 234.049 389.602 231.914 389.986 229.539C390.344 227.188 390.483 224.808 390.4 222.431C390.437 219.259 390.702 216.095 391.191 212.961C391.617 210.78 391.882 208.571 391.982 206.352C391.961 203.784 391.463 201.243 390.513 198.856C388.391 193.296 384.022 188.286 378.234 186.812C375.588 186.162 372.803 186.368 370.283 187.402C367.763 188.435 365.64 190.242 364.223 192.559C362.767 194.895 362.905 197.269 362.729 200.055C362.495 203.845 362.252 207.651 362.001 211.474Z" fill="url(#paint24_linear)"/>
<path d="M360.356 179.504C359.314 179.079 357.908 178.692 357.243 179.591C357.014 179.967 356.905 180.402 356.929 180.84C356.909 182.423 357.442 183.964 358.435 185.201C357.395 185.127 356.364 185.433 355.535 186.063C354.368 187.212 354.945 189.236 355.975 190.498C357.004 191.76 358.423 192.784 359.038 194.246C359.364 195.033 359.44 195.907 359.754 196.744C359.874 197.155 360.109 197.523 360.431 197.806C360.753 198.089 361.15 198.276 361.574 198.344C362.704 198.344 363.42 197.219 364.085 196.282C365.86 193.879 368.492 192.244 371.441 191.712C374.39 191.18 377.432 191.791 379.942 193.421C384.788 196.844 386.131 203.303 387.098 209.138C387.588 209.488 387.876 208.551 388.065 207.988C388.492 206.739 390.45 206.851 391.153 207.913C391.446 208.48 391.575 209.116 391.526 209.751C391.477 210.386 391.253 210.996 390.877 211.511C390.199 212.586 389.207 213.435 388.467 214.472C388.25 214.716 388.137 215.034 388.153 215.359C388.218 215.631 388.373 215.873 388.592 216.047C389.193 216.643 389.83 217.202 390.5 217.721C390.745 217.965 391.04 218.154 391.365 218.275C391.69 218.396 392.038 218.445 392.384 218.42C392.856 218.285 393.27 218 393.564 217.608C396.075 214.81 397.054 210.924 397.594 207.189C398.134 203.453 398.096 199.243 395.183 196.994C394.606 196.557 393.928 196.232 393.401 195.745C392.46 194.818 391.687 193.736 391.116 192.547C387.982 187.3 383.153 183.266 377.418 181.103C374.836 179.897 371.947 179.497 369.132 179.953C366.242 180.812 363.143 180.653 360.356 179.504Z" fill="#B7A451"/>
<path d="M345.303 271.03C344.864 271.579 344.462 272.416 344.952 272.916C345.123 273.037 345.316 273.122 345.521 273.167C345.726 273.212 345.938 273.216 346.144 273.178L361.135 272.291C361.379 272.294 361.622 272.251 361.85 272.166C362.604 271.829 362.654 270.817 362.604 269.993L362.34 266.145C362.252 264.758 362.541 264.333 361.185 264.146C359.146 264.056 357.107 264.34 355.171 264.983C351.338 265.948 347.894 268.058 345.303 271.03Z" fill="url(#paint25_linear)"/>
<path d="M429.182 278.051H305.203V314.631H429.182V278.051Z" fill="url(#paint26_linear)"/>
<path d="M269.309 221.918H237.633L243.006 193.409H264.714L269.309 221.918Z" fill="white"/>
<path d="M261.01 195.932H247.426V194.683C247.426 192.89 248.141 191.171 249.415 189.904C250.689 188.636 252.416 187.924 254.218 187.924C256.019 187.924 257.747 188.636 259.02 189.904C260.294 191.171 261.01 192.89 261.01 194.683V195.932ZM250.012 193.496H258.373C258.109 192.597 257.558 191.807 256.804 191.245C256.051 190.684 255.134 190.38 254.193 190.38C253.251 190.38 252.335 190.684 251.581 191.245C250.827 191.807 250.277 192.597 250.012 193.496Z" fill="white"/>
<path d="M337.67 288.47H313.903V314.156H337.67V288.47Z" fill="#68E1FD"/>
<path d="M337.67 288.47H313.903V314.156H337.67V288.47Z" fill="url(#paint27_linear)"/>
<path d="M368.366 299.602H344.6V314.156H368.366V299.602Z" fill="url(#paint28_linear)"/>
<path d="M334.292 288.47H310.526V314.156H334.292V288.47Z" fill="#68E1FD"/>
<path d="M363.558 301.063H345.09V314.444H363.558V301.063Z" fill="#68E1FD"/>
<path d="M337.142 340.405H313.376V366.091H337.142V340.405Z" fill="#68E1FD"/>
<path d="M363.031 352.998H344.562V366.378H363.031V352.998Z" fill="#68E1FD"/>
<path d="M385.717 314.444C390.335 314.444 394.078 310.718 394.078 306.123C394.078 301.528 390.335 297.803 385.717 297.803C381.099 297.803 377.355 301.528 377.355 306.123C377.355 310.718 381.099 314.444 385.717 314.444Z" fill="url(#paint29_linear)"/>
<path d="M382.641 314.444C387.259 314.444 391.003 310.718 391.003 306.123C391.003 301.528 387.259 297.803 382.641 297.803C378.023 297.803 374.28 301.528 374.28 306.123C374.28 310.718 378.023 314.444 382.641 314.444Z" fill="#68E1FD"/>
<path d="M378.096 366.603C382.714 366.603 386.458 362.878 386.458 358.283C386.458 353.687 382.714 349.962 378.096 349.962C373.478 349.962 369.735 353.687 369.735 358.283C369.735 362.878 373.478 366.603 378.096 366.603Z" fill="url(#paint30_linear)"/>
<path d="M375.008 366.603C379.626 366.603 383.37 362.878 383.37 358.283C383.37 353.687 379.626 349.962 375.008 349.962C370.39 349.962 366.646 353.687 366.646 358.283C366.646 362.878 370.39 366.603 375.008 366.603Z" fill="#68E1FD"/>
<path d="M412.17 314.444C418.327 314.444 423.319 309.477 423.319 303.35C423.319 297.223 418.327 292.256 412.17 292.256C406.013 292.256 401.021 297.223 401.021 303.35C401.021 309.477 406.013 314.444 412.17 314.444Z" fill="url(#paint31_linear)"/>
<path d="M408.065 314.444C414.222 314.444 419.213 309.477 419.213 303.35C419.213 297.223 414.222 292.256 408.065 292.256C401.907 292.256 396.916 297.223 396.916 303.35C396.916 309.477 401.907 314.444 408.065 314.444Z" fill="#68E1FD"/>
<path d="M401.612 366.216C407.769 366.216 412.76 361.249 412.76 355.122C412.76 348.995 407.769 344.028 401.612 344.028C395.454 344.028 390.463 348.995 390.463 355.122C390.463 361.249 395.454 366.216 401.612 366.216Z" fill="url(#paint32_linear)"/>
<path d="M397.506 366.216C403.663 366.216 408.655 361.249 408.655 355.122C408.655 348.995 403.663 344.028 397.506 344.028C391.349 344.028 386.357 348.995 386.357 355.122C386.357 361.249 391.349 366.216 397.506 366.216Z" fill="#68E1FD"/>
<path d="M215.072 267.307C215.072 273.478 211.82 276.527 208.016 276.527C204.212 276.527 201.199 273.603 201.149 267.781C201.098 261.959 204.363 258.649 208.242 258.649C212.347 258.586 215.072 261.735 215.072 267.307ZM204.312 267.581C204.224 271.329 205.631 274.153 208.079 274.153C210.527 274.153 211.845 271.354 211.845 267.494C211.845 263.933 210.803 260.972 208.079 260.972C205.631 260.972 204.312 263.946 204.312 267.581ZM207.752 288.82L225.015 258.599H227.526L210.276 288.808L207.752 288.82ZM234.193 279.425C234.193 285.584 230.929 288.645 227.187 288.645C223.446 288.645 220.357 285.722 220.32 279.9C220.282 274.078 223.521 270.73 227.413 270.73C231.519 270.692 234.193 273.828 234.193 279.413V279.425ZM223.433 279.687C223.433 283.435 224.839 286.259 227.275 286.259C229.899 286.259 231.042 283.473 231.042 279.6C231.042 276.052 230 273.078 227.275 273.078C224.789 273.066 223.433 275.989 223.433 279.675V279.687Z" fill="white"/>
</g>
<defs>
<linearGradient id="paint0_linear" x1="316.979" y1="332.784" x2="307.394" y2="478.162" gradientUnits="userSpaceOnUse">
<stop offset="0.01"/>
<stop offset="0.13" stop-opacity="0.69"/>
<stop offset="1" stop-opacity="0"/>
</linearGradient>
<linearGradient id="paint1_linear" x1="31698.6" y1="64024.2" x2="75141.7" y2="63008.3" gradientUnits="userSpaceOnUse">
<stop offset="0.01"/>
<stop offset="0.13" stop-opacity="0.69"/>
<stop offset="1" stop-opacity="0"/>
</linearGradient>
<linearGradient id="paint2_linear" x1="31462.4" y1="34524.3" x2="30987.3" y2="17858.3" gradientUnits="userSpaceOnUse">
<stop offset="0.01"/>
<stop offset="0.13" stop-opacity="0.69"/>
<stop offset="1" stop-opacity="0"/>
</linearGradient>
<linearGradient id="paint3_linear" x1="29800.3" y1="11958.5" x2="30057.9" y2="17416.3" gradientUnits="userSpaceOnUse">
<stop offset="0.01"/>
<stop offset="0.13" stop-opacity="0.69"/>
<stop offset="1" stop-opacity="0"/>
</linearGradient>
<linearGradient id="paint4_linear" x1="29099.1" y1="2907.73" x2="29041.5" y2="5971.32" gradientUnits="userSpaceOnUse">
<stop offset="0.01"/>
<stop offset="0.13" stop-opacity="0.69"/>
<stop offset="1" stop-opacity="0"/>
</linearGradient>
<linearGradient id="paint5_linear" x1="36298.1" y1="2921.89" x2="36238.1" y2="6067.35" gradientUnits="userSpaceOnUse">
<stop offset="0.01"/>
<stop offset="0.13" stop-opacity="0.69"/>
<stop offset="1" stop-opacity="0"/>
</linearGradient>
<linearGradient id="paint6_linear" x1="12418" y1="2769.03" x2="12245.7" y2="5906.11" gradientUnits="userSpaceOnUse">
<stop offset="0.01"/>
<stop offset="0.13" stop-opacity="0.69"/>
<stop offset="1" stop-opacity="0"/>
</linearGradient>
<linearGradient id="paint7_linear" x1="14715.4" y1="2769.03" x2="14542.8" y2="5906.15" gradientUnits="userSpaceOnUse">
<stop offset="0.01"/>
<stop offset="0.13" stop-opacity="0.69"/>
<stop offset="1" stop-opacity="0"/>
</linearGradient>
<linearGradient id="paint8_linear" x1="311.468" y1="101.308" x2="320.507" y2="184.873" gradientUnits="userSpaceOnUse">
<stop offset="0.02" stop-color="white" stop-opacity="0"/>
<stop offset="0.32" stop-color="white" stop-opacity="0.39"/>
<stop offset="0.68" stop-color="white" stop-opacity="0.68"/>
<stop offset="1" stop-color="white"/>
</linearGradient>
<linearGradient id="paint9_linear" x1="4707.18" y1="1106.22" x2="4741.44" y2="1833.78" gradientUnits="userSpaceOnUse">
<stop offset="0.01"/>
<stop offset="0.13" stop-opacity="0.69"/>
<stop offset="1" stop-opacity="0"/>
</linearGradient>
<linearGradient id="paint10_linear" x1="6267.18" y1="1047.26" x2="6302.16" y2="1782.71" gradientUnits="userSpaceOnUse">
<stop offset="0.02" stop-color="white" stop-opacity="0"/>
<stop offset="0.32" stop-color="white" stop-opacity="0.39"/>
<stop offset="0.68" stop-color="white" stop-opacity="0.68"/>
<stop offset="1" stop-color="white"/>
</linearGradient>
<linearGradient id="paint11_linear" x1="5901.67" y1="1070.71" x2="5942.84" y2="1807.23" gradientUnits="userSpaceOnUse">
<stop offset="0.01"/>
<stop offset="0.13" stop-opacity="0.69"/>
<stop offset="1" stop-opacity="0"/>
</linearGradient>
<linearGradient id="paint12_linear" x1="4188.13" y1="1129.39" x2="4222.4" y2="1857.05" gradientUnits="userSpaceOnUse">
<stop offset="0.02" stop-color="white" stop-opacity="0"/>
<stop offset="0.32" stop-color="white" stop-opacity="0.39"/>
<stop offset="0.68" stop-color="white" stop-opacity="0.68"/>
<stop offset="1" stop-color="white"/>
</linearGradient>
<linearGradient id="paint13_linear" x1="5745.26" y1="1059.67" x2="5779.52" y2="1787.23" gradientUnits="userSpaceOnUse">
<stop offset="0.01"/>
<stop offset="0.13" stop-opacity="0.69"/>
<stop offset="1" stop-opacity="0"/>
</linearGradient>
<linearGradient id="paint14_linear" x1="3669.15" y1="1152.67" x2="3703.41" y2="1880.33" gradientUnits="userSpaceOnUse">
<stop offset="0.01"/>
<stop offset="0.13" stop-opacity="0.69"/>
<stop offset="1" stop-opacity="0"/>
</linearGradient>
<linearGradient id="paint15_linear" x1="7093.19" y1="3962.67" x2="9945" y2="3962.67" gradientUnits="userSpaceOnUse">
<stop offset="0.02" stop-color="white" stop-opacity="0"/>
<stop offset="0.32" stop-color="white" stop-opacity="0.39"/>
<stop offset="0.68" stop-color="white" stop-opacity="0.68"/>
<stop offset="1" stop-color="white"/>
</linearGradient>
<linearGradient id="paint16_linear" x1="9313.27" y1="3979.51" x2="12018.6" y2="3979.51" gradientUnits="userSpaceOnUse">
<stop offset="0.02" stop-color="white" stop-opacity="0"/>
<stop offset="0.32" stop-color="white" stop-opacity="0.39"/>
<stop offset="0.68" stop-color="white" stop-opacity="0.68"/>
<stop offset="1" stop-color="white"/>
</linearGradient>
<linearGradient id="paint17_linear" x1="11711.3" y1="3979.51" x2="14416.7" y2="3979.51" gradientUnits="userSpaceOnUse">
<stop offset="0.02" stop-color="white" stop-opacity="0"/>
<stop offset="0.32" stop-color="white" stop-opacity="0.39"/>
<stop offset="0.68" stop-color="white" stop-opacity="0.68"/>
<stop offset="1" stop-color="white"/>
</linearGradient>
<linearGradient id="paint18_linear" x1="10098.4" y1="4618.26" x2="8124.52" y2="3817.04" gradientUnits="userSpaceOnUse">
<stop offset="0.01"/>
<stop offset="0.13" stop-opacity="0.69"/>
<stop offset="1" stop-opacity="0"/>
</linearGradient>
<linearGradient id="paint19_linear" x1="7821.44" y1="4430.02" x2="7836.98" y2="5181.64" gradientUnits="userSpaceOnUse">
<stop offset="0.01"/>
<stop offset="0.13" stop-opacity="0.69"/>
<stop offset="1" stop-opacity="0"/>
</linearGradient>
<linearGradient id="paint20_linear" x1="5955.56" y1="10843.4" x2="9425.89" y2="10843.4" gradientUnits="userSpaceOnUse">
<stop offset="0.02" stop-color="white" stop-opacity="0"/>
<stop offset="0.32" stop-color="white" stop-opacity="0.39"/>
<stop offset="0.68" stop-color="white" stop-opacity="0.68"/>
<stop offset="1" stop-color="white"/>
</linearGradient>
<linearGradient id="paint21_linear" x1="3708.52" y1="12941.3" x2="6430.2" y2="12941.3" gradientUnits="userSpaceOnUse">
<stop offset="0.02" stop-color="white" stop-opacity="0"/>
<stop offset="0.32" stop-color="white" stop-opacity="0.39"/>
<stop offset="0.68" stop-color="white" stop-opacity="0.68"/>
<stop offset="1" stop-color="white"/>
</linearGradient>
<linearGradient id="paint22_linear" x1="327.061" y1="225.541" x2="348.078" y2="225.541" gradientUnits="userSpaceOnUse">
<stop stop-color="#E5C5D5"/>
<stop offset="0.42" stop-color="#EAD4D1"/>
<stop offset="1" stop-color="#F0E9CB"/>
</linearGradient>
<linearGradient id="paint23_linear" x1="369.735" y1="242.332" x2="388.295" y2="313.302" gradientUnits="userSpaceOnUse">
<stop stop-opacity="0"/>
<stop offset="0.99"/>
</linearGradient>
<linearGradient id="paint24_linear" x1="17755.2" y1="-33871.6" x2="18497.9" y2="-34171.5" gradientUnits="userSpaceOnUse">
<stop stop-color="#E5C5D5"/>
<stop offset="0.42" stop-color="#EAD4D1"/>
<stop offset="1" stop-color="#F0E9CB"/>
</linearGradient>
<linearGradient id="paint25_linear" x1="4360.02" y1="2276.55" x2="4614.96" y2="2276.55" gradientUnits="userSpaceOnUse">
<stop stop-color="#E5C5D5"/>
<stop offset="0.42" stop-color="#EAD4D1"/>
<stop offset="1" stop-color="#F0E9CB"/>
</linearGradient>
<linearGradient id="paint26_linear" x1="25397.3" y1="7889.33" x2="25527.9" y2="11455.2" gradientUnits="userSpaceOnUse">
<stop offset="0.01"/>
<stop offset="0.13" stop-opacity="0.69"/>
<stop offset="1" stop-opacity="0"/>
</linearGradient>
<linearGradient id="paint27_linear" x1="4672.42" y1="6413.08" x2="3876.38" y2="6607.54" gradientUnits="userSpaceOnUse">
<stop offset="0.01"/>
<stop offset="0.13" stop-opacity="0.69"/>
<stop offset="1" stop-opacity="0"/>
</linearGradient>
<linearGradient id="paint28_linear" x1="5260.43" y1="3838.73" x2="4617.88" y2="4115.65" gradientUnits="userSpaceOnUse">
<stop offset="0.01"/>
<stop offset="0.13" stop-opacity="0.69"/>
<stop offset="1" stop-opacity="0"/>
</linearGradient>
<linearGradient id="paint29_linear" x1="4123.47" y1="4236.91" x2="3952.19" y2="4677.8" gradientUnits="userSpaceOnUse">
<stop offset="0.01"/>
<stop offset="0.13" stop-opacity="0.69"/>
<stop offset="1" stop-opacity="0"/>
</linearGradient>
<linearGradient id="paint30_linear" x1="4014.35" y1="4983.84" x2="3842.9" y2="5424.73" gradientUnits="userSpaceOnUse">
<stop offset="0.01"/>
<stop offset="0.13" stop-opacity="0.69"/>
<stop offset="1" stop-opacity="0"/>
</linearGradient>
<linearGradient id="paint31_linear" x1="5889.75" y1="5433.68" x2="5585.1" y2="6217.5" gradientUnits="userSpaceOnUse">
<stop offset="0.01"/>
<stop offset="0.13" stop-opacity="0.69"/>
<stop offset="1" stop-opacity="0"/>
</linearGradient>
<linearGradient id="paint32_linear" x1="5691.67" y1="6404.7" x2="5387.02" y2="7188.51" gradientUnits="userSpaceOnUse">
<stop offset="0.01"/>
<stop offset="0.13" stop-opacity="0.69"/>
<stop offset="1" stop-opacity="0"/>
</linearGradient>
<clipPath id="clip0">
<rect width="652" height="489" fill="white"/>
</clipPath>
</defs>
</svg>
